<svg width="16" height="16" viewBox="0 0 16 16" fill="none" xmlns="http://www.w3.org/2000/svg">
<path d="M14.9274 15.3634L14.0995 4.45827C14.08 4.19767 13.8625 3.99609 13.6009 3.99609H2.38766C2.12606 3.99609 1.90848 4.19767 1.88897 4.45877L1.05416 15.4629C1.04365 15.6014 1.09167 15.7385 1.18621 15.8405C1.28074 15.9426 1.41379 16.0006 1.55284 16.0006H14.4362C14.4392 16.0006 14.4427 16.0006 14.4462 16.0006C14.7223 16.0006 14.9464 15.7765 14.9464 15.4999C14.9464 15.4529 14.9399 15.4069 14.9274 15.3634ZM2.09205 15.0002L2.85133 4.99647H13.1372L13.8965 15.0002H2.09205Z" fill="black"/>
<path d="M7.99466 0C5.78834 0 3.99316 1.79567 3.99316 4.0025V5.99625C3.99316 6.27235 4.21725 6.49644 4.49335 6.49644C4.76946 6.49644 4.99354 6.27235 4.99354 5.99625V4.0025C4.99354 2.34688 6.33954 1.00038 7.99466 1.00038C9.64979 1.00038 10.9958 2.34688 10.9958 4.0025V5.99625C10.9958 6.27235 11.2199 6.49644 11.496 6.49644C11.7721 6.49644 11.9962 6.27235 11.9962 5.99625V4.0025C11.9962 1.79567 10.201 0 7.99466 0Z" fill="black"/>
</svg>
