<svg width="88" height="32" viewBox="0 0 88 32" fill="none" xmlns="http://www.w3.org/2000/svg">
<path d="M15.759 16.4539C15.7275 16.4381 15.7038 16.4224 15.6763 16.3987C15.6605 16.3869 15.6526 16.3751 15.6408 16.3633C14.7071 17.2967 11.3348 20.6721 11.0866 20.9044C9.57372 22.3144 7.99786 23.5787 6.73717 23.3109C6.02015 23.1612 5.42526 22.5192 4.92886 21.3574C4.7043 20.8375 4.59005 19.2384 4.5743 19.0257C4.49156 19.0336 4.41277 19.0376 4.33398 19.0454C4.2473 19.4157 4.12911 20.3964 3.97547 22.0348C3.8691 23.1652 3.98335 24.6933 4.03456 25.1423C4.21185 26.765 4.83431 27.5527 5.32677 27.9308C5.78377 28.2814 6.33532 28.4271 6.879 28.3404C7.99786 28.1671 8.99065 27.4346 9.90466 26.4027C9.95587 26.3436 10.0071 26.2806 10.0622 26.2215C11.0393 25.0675 11.9257 23.5787 12.7688 22.0781L15.759 16.4539Z" fill="black"/>
<path d="M15.5385 15.7596C15.5542 15.7281 15.5739 15.7005 15.5936 15.6729C15.6055 15.6611 15.6173 15.6493 15.6291 15.6375C14.6915 14.7001 11.327 11.3405 11.0906 11.0885C9.68415 9.57605 8.41557 8.00457 8.68347 6.74029C8.83712 6.02347 9.47534 5.42875 10.6336 4.93249C11.1536 4.71193 12.7492 4.59378 12.9659 4.57802C12.958 4.49531 12.9541 4.41654 12.9462 4.33777C12.5798 4.25112 11.5988 4.13296 9.95598 3.97936C8.8253 3.87302 7.29671 3.98724 6.84759 4.03844C5.22445 4.21567 4.43652 4.83797 4.06225 5.32635C3.71162 5.78322 3.56585 6.33856 3.64859 6.88208C3.82193 8.00063 4.55471 8.99315 5.5869 9.90295C5.64599 9.95809 5.70903 10.0093 5.76812 10.0605C6.92244 11.0373 8.41163 11.9234 9.91265 12.7663L15.5385 15.7596Z" fill="black"/>
<path d="M26.6764 4.07678C26.2194 3.72624 25.6678 3.58052 25.1202 3.66323C24.0013 3.83652 23.0085 4.5691 22.0985 5.60494C22.0433 5.66402 21.9921 5.72309 21.9409 5.78611C20.9639 6.94011 20.0774 8.42888 19.2343 9.92947L16.2441 15.5419C16.2717 15.5577 16.2993 15.5734 16.3229 15.5931C16.3387 15.6049 16.3505 15.6207 16.3663 15.6325C17.3039 14.6912 20.6644 11.3316 20.9126 11.0992C22.4255 9.69316 23.9974 8.42494 25.262 8.69277C25.979 8.84243 26.57 9.48048 27.0703 10.6424C27.2949 11.1622 27.4091 12.7613 27.4249 12.9779C27.5037 12.97 27.5864 12.9661 27.6652 12.9582C27.7519 12.588 27.8701 11.6073 28.0237 9.96886C28.1301 8.83849 28.0158 7.31033 27.9646 6.86134C27.7913 5.28591 27.2003 4.4982 26.7197 4.11222C26.7039 4.10041 26.6882 4.08859 26.6764 4.07678Z" fill="black"/>
<path d="M16.452 16.2441C16.4362 16.2717 16.4205 16.2993 16.4008 16.3229C16.3889 16.3387 16.3732 16.3505 16.3574 16.3623C17.2951 17.2957 20.6635 20.6671 20.8959 20.9153C22.3024 22.4277 23.5709 24.0031 23.303 25.2634C23.1533 25.9803 22.5112 26.575 21.349 27.0712C20.8289 27.2957 19.2294 27.41 19.0167 27.4257C19.0246 27.5084 19.0285 27.5872 19.0364 27.666C19.4028 27.7526 20.3877 27.8708 22.0305 28.0244C23.1652 28.1307 24.6937 28.0165 25.1389 27.9653C26.7621 27.7881 27.55 27.1658 27.9243 26.6774C28.2749 26.2205 28.4207 25.6652 28.3379 25.1256C28.1646 24.007 27.4318 23.0145 26.3957 22.1008C26.3366 22.0496 26.2775 21.9944 26.2145 21.9432C25.0601 20.9665 23.5709 20.0842 22.0699 19.2374L16.452 16.2441Z" fill="black"/>
<path d="M4.57037 19.024C6.07532 18.898 7.75756 18.4687 9.41222 18.0079L15.5069 16.1489C15.4911 16.1016 15.4872 16.0504 15.4872 15.9992C14.1634 15.9992 9.4004 16.0032 9.05764 15.9914C6.99326 15.9165 4.98404 15.6999 4.27884 14.6168C3.87699 14.0024 3.91245 13.132 4.38127 11.9583C4.59007 11.4344 5.63802 10.2214 5.78379 10.0599C5.72075 10.0087 5.66166 9.95748 5.60256 9.90234C5.27951 10.1032 4.4837 10.7294 3.23483 11.7653C2.35628 12.49 1.35955 13.6519 1.07983 14.0024C0.0555195 15.2745 -0.0587308 16.2749 0.0200625 16.8854C0.094916 17.4565 0.382511 17.9488 0.827693 18.2718C1.74169 18.9413 2.96299 19.1264 4.33793 19.0398C4.41278 19.0359 4.49158 19.0319 4.57037 19.024Z" fill="black"/>
<path d="M15.999 16.5119C15.999 17.8313 15.999 22.6009 15.9872 22.9436C15.9123 25.0074 15.6957 27.016 14.6123 27.7211C13.9977 28.1228 13.127 28.0873 11.953 27.6186C11.429 27.4099 10.2156 26.3622 10.0541 26.2165C10.0029 26.2756 9.95164 26.3386 9.89648 26.3977C10.0974 26.7207 10.7041 27.4966 11.7599 28.7648C12.4848 29.6431 13.647 30.6395 13.9977 30.9192C15.2741 31.9432 16.2669 32.0613 16.8815 31.9786C17.4528 31.9038 17.9492 31.6163 18.2722 31.1712C18.938 30.2575 19.1232 29.0365 19.0404 27.662C19.0365 27.5832 19.0286 27.5005 19.0207 27.4217C18.8947 25.9133 18.4692 24.2394 18.0043 22.5812L16.1487 16.4883C16.0975 16.508 16.0502 16.5119 15.999 16.5119Z" fill="black"/>
<path d="M15.1129 0.0211331C14.5417 0.0959658 14.0492 0.383481 13.7222 0.828538C13.0564 1.74228 12.8713 2.96324 12.954 4.33779C12.9579 4.41656 12.9658 4.49534 12.9737 4.57805C13.0998 6.08651 13.5252 7.7604 13.9901 9.41854L15.8457 15.4997C15.8969 15.4839 15.9481 15.48 15.9993 15.48C15.9993 14.1527 15.9954 9.40278 16.0072 9.06013C16.0821 6.99238 16.2988 4.98766 17.3822 4.28265C17.9968 3.88092 18.8674 3.91637 20.0414 4.38506C20.5654 4.5938 21.7788 5.64146 21.9404 5.78325C21.9916 5.72023 22.0428 5.66115 22.0979 5.60207C21.897 5.28305 21.2864 4.50321 20.2345 3.235C19.5096 2.36064 18.3474 1.36024 17.9968 1.08061C16.7203 0.0605187 15.7236 -0.0615766 15.1129 0.0211331Z" fill="black"/>
<path d="M27.665 12.9598C27.5862 12.9638 27.5074 12.9716 27.4247 12.9795C25.9158 13.1055 24.2375 13.5309 22.5829 13.9957L16.4961 15.8507C16.5119 15.9019 16.5158 15.9531 16.5158 16.0004C17.8435 16.0004 22.6026 16.0004 22.9414 16.0122C25.0058 16.087 27.015 16.3037 27.7202 17.3868C28.122 18.0012 28.0866 18.8716 27.6178 20.0453C27.409 20.5691 26.361 21.7822 26.2192 21.9437C26.2822 21.9949 26.3413 22.0461 26.4004 22.1012C26.7195 21.9003 27.4996 21.2899 28.7681 20.2422C29.6427 19.5175 30.6434 18.3517 30.9231 18.0051C31.9435 16.733 32.0617 15.7365 31.979 15.1221C31.908 14.5825 31.648 14.1138 31.2462 13.7909C31.2225 13.7712 31.1989 13.7515 31.1713 13.7357C30.2613 13.0622 29.04 12.8771 27.665 12.9598Z" fill="black"/>
<path d="M36.0032 12.2246H37.2873C37.3127 12.4413 37.411 12.6388 37.5822 12.8172C37.7598 12.9892 37.9912 13.1262 38.2766 13.2282C38.562 13.3238 38.8822 13.3716 39.2373 13.3716C39.5607 13.3716 39.8271 13.3365 40.0363 13.2664C40.2456 13.1963 40.401 13.0976 40.5024 12.9701C40.6039 12.8427 40.6546 12.6898 40.6546 12.5114C40.6546 12.3393 40.5912 12.2087 40.4644 12.1195C40.3376 12.0239 40.1378 11.9474 39.8651 11.8901C39.5924 11.8264 39.2341 11.7626 38.7902 11.6989C38.4415 11.6479 38.1117 11.5779 37.801 11.4887C37.4902 11.3931 37.2144 11.272 36.9734 11.1254C36.7388 10.9789 36.5517 10.8005 36.4122 10.5902C36.279 10.3736 36.2124 10.1187 36.2124 9.82557C36.2124 9.46237 36.3139 9.14377 36.5168 8.86977C36.7261 8.59578 37.0337 8.38232 37.4395 8.22939C37.8454 8.07646 38.3432 8 38.9329 8C39.8207 8 40.5024 8.19116 40.9781 8.57348C41.46 8.94942 41.6946 9.46874 41.682 10.1314H40.4454C40.42 9.75548 40.2615 9.48467 39.9698 9.319C39.6844 9.15333 39.3229 9.07049 38.8854 9.07049C38.4795 9.07049 38.1434 9.13102 37.8771 9.25209C37.6171 9.37316 37.4871 9.58025 37.4871 9.87336C37.4871 9.98805 37.5188 10.09 37.5822 10.1792C37.6456 10.262 37.7534 10.3353 37.9056 10.399C38.0578 10.4628 38.2639 10.5233 38.5239 10.5806C38.7839 10.638 39.1073 10.6953 39.4941 10.7527C39.8556 10.8037 40.1822 10.8738 40.4739 10.963C40.772 11.0458 41.0256 11.1573 41.2349 11.2975C41.4505 11.4313 41.6154 11.6033 41.7295 11.8136C41.8437 12.0239 41.9007 12.282 41.9007 12.5878C41.9007 12.9638 41.8024 13.2919 41.6059 13.5723C41.4156 13.8463 41.1176 14.0597 40.7117 14.2127C40.3122 14.3656 39.7922 14.4421 39.1517 14.4421C38.6951 14.4421 38.2924 14.3943 37.9437 14.2987C37.5949 14.1967 37.2937 14.0629 37.04 13.8973C36.7863 13.7316 36.5802 13.55 36.4217 13.3524C36.2632 13.1549 36.149 12.9574 36.0793 12.7599C36.0159 12.5623 35.9905 12.3839 36.0032 12.2246Z" fill="black"/>
<path d="M49.2569 13.0466L48.8574 13.2091V8.12425H50.1225V14.3082H48.8574L43.8825 9.42413L44.282 9.26165V14.3082H43.0169V8.12425H44.282L49.2569 13.0466Z" fill="black"/>
<path d="M52.856 11.7276V13.2473H57.6026V14.3082H51.5908V8.12425H57.5931V9.18519H52.856V10.724H56.737V11.7276H52.856Z" fill="black"/>
<path d="M59.8622 12.9606V11.8996H63.9335V12.9606H59.8622ZM58.3308 14.3082L61.2225 8.12425H62.5922L65.5125 14.3082H64.1332L61.603 8.73596H62.2117L59.7005 14.3082H58.3308Z" fill="black"/>
<path d="M69.0421 11.2975L69.0326 10.7622L73.1799 14.3082H71.3536L67.6628 11.0585L70.9445 8.12425H72.7424L69.0421 11.2975ZM66.4072 8.12425H67.6723V14.3082H66.4072V8.12425Z" fill="black"/>
<path d="M75.4196 11.7276V13.2473H80.1662V14.3082H74.1545V8.12425H80.1567V9.18519H75.4196V10.724H79.3006V11.7276H75.4196Z" fill="black"/>
<path d="M81.4651 14.3082V8.12425H85.641C86.1166 8.12425 86.5288 8.19116 86.8776 8.32497C87.2327 8.45241 87.5085 8.65631 87.7051 8.93668C87.9017 9.21067 88 9.56432 88 9.99761C88 10.2907 87.9493 10.5392 87.8478 10.7431C87.7463 10.947 87.6037 11.1127 87.4198 11.2401C87.2422 11.3676 87.0361 11.4663 86.8015 11.5364C86.5668 11.6002 86.3163 11.6416 86.05 11.6607L85.9168 11.5842C86.3607 11.5906 86.7254 11.6288 87.0107 11.6989C87.2961 11.7626 87.5085 11.8837 87.6481 12.0621C87.7939 12.2342 87.8668 12.4922 87.8668 12.8363V14.3082H86.6017V12.9223C86.6017 12.6866 86.5605 12.505 86.4781 12.3775C86.3956 12.2437 86.2466 12.1513 86.031 12.1004C85.8217 12.0494 85.5173 12.0239 85.1178 12.0239H82.7302V14.3082H81.4651ZM82.7302 11.0299H85.641C85.9961 11.0299 86.2656 10.9438 86.4495 10.7718C86.6398 10.5998 86.7349 10.3672 86.7349 10.0741C86.7349 9.79371 86.6398 9.58025 86.4495 9.43369C86.2656 9.28714 85.9961 9.21386 85.641 9.21386H82.7302V11.0299Z" fill="black"/>
<path d="M36.4122 23.8662V17.6822H39.9602C40.7846 17.6822 41.4093 17.8224 41.8342 18.1027C42.2654 18.3767 42.481 18.7877 42.481 19.3357C42.481 19.6862 42.3954 19.9634 42.2242 20.1673C42.0529 20.3648 41.8088 20.5114 41.4917 20.6069C41.181 20.7025 40.8132 20.763 40.3883 20.7885L40.4263 20.7216C40.7371 20.728 41.0288 20.7503 41.3015 20.7885C41.5805 20.8268 41.8246 20.8969 42.0339 20.9988C42.2432 21.1008 42.4081 21.2441 42.5285 21.4289C42.649 21.6073 42.7093 21.8431 42.7093 22.1362C42.7093 22.5185 42.6078 22.8371 42.4049 23.092C42.202 23.3405 41.9198 23.5285 41.5583 23.6559C41.1968 23.7834 40.7783 23.8534 40.3027 23.8662H36.4122ZM37.6773 22.8148H40.1695C40.569 22.8148 40.8766 22.7511 41.0922 22.6237C41.3078 22.4898 41.4156 22.2796 41.4156 21.9928C41.4156 21.7826 41.3522 21.6296 41.2254 21.5341C41.0985 21.4385 40.9305 21.3811 40.7212 21.362C40.512 21.3365 40.2868 21.3238 40.0459 21.3238H37.6773V22.8148ZM37.6773 20.3011H39.9127C40.3122 20.3011 40.6198 20.2437 40.8354 20.129C41.051 20.008 41.1588 19.8041 41.1588 19.5173C41.1588 19.2306 41.051 19.0299 40.8354 18.9152C40.6198 18.7941 40.3344 18.7336 39.9793 18.7336H37.6773V20.3011Z" fill="black"/>
<path d="M45.0994 21.2855V22.8053H57.6121V23.8662H43.8343V17.6822H57.6026V18.7431H45.0994V20.282H57.5931V21.2855H45.0994Z" fill="black"/>
<path d="M59.8344 22.5185V21.4576H63.9056V22.5185H59.8344ZM58.3029 23.8662L61.1946 17.6822H62.5644L65.4846 23.8662H64.1053L61.5751 18.2939H62.1839L59.6727 23.8662H58.3029Z" fill="black"/>
<path d="M65.8867 21.7826H67.1709C67.1962 21.9992 67.2945 22.1967 67.4658 22.3752C67.6433 22.5472 67.8748 22.6842 68.1601 22.7861C68.4455 22.8817 68.7658 22.9295 69.1209 22.9295C69.4443 22.9295 69.7106 22.8945 69.9199 22.8244C70.1292 22.7543 70.2845 22.6555 70.386 22.5281C70.4875 22.4006 70.5382 22.2477 70.5382 22.0693C70.5382 21.8973 70.4748 21.7666 70.3479 21.6774C70.2211 21.5818 70.0214 21.5054 69.7487 21.448C69.476 21.3843 69.1177 21.3206 68.6738 21.2569C68.325 21.2059 67.9953 21.1358 67.6845 21.0466C67.3738 20.951 67.0979 20.8299 66.857 20.6834C66.6223 20.5368 66.4353 20.3584 66.2957 20.1481C66.1626 19.9315 66.096 19.6766 66.096 19.3835C66.096 19.0203 66.1975 18.7017 66.4004 18.4277C66.6097 18.1537 66.9172 17.9403 67.3231 17.7873C67.7289 17.6344 68.2267 17.5579 68.8165 17.5579C69.7043 17.5579 70.386 17.7491 70.8616 18.1314C71.3436 18.5074 71.5782 19.0267 71.5655 19.6894H70.3289C70.3036 19.3134 70.145 19.0426 69.8533 18.8769C69.568 18.7113 69.2065 18.6284 68.7689 18.6284C68.3631 18.6284 68.027 18.689 67.7606 18.81C67.5006 18.9311 67.3706 19.1382 67.3706 19.4313C67.3706 19.546 67.4023 19.648 67.4658 19.7372C67.5292 19.82 67.637 19.8933 67.7892 19.957C67.9414 20.0207 68.1475 20.0812 68.4075 20.1386C68.6675 20.1959 68.9909 20.2533 69.3777 20.3106C69.7392 20.3616 70.0658 20.4317 70.3575 20.5209C70.6555 20.6037 70.9092 20.7153 71.1184 20.8554C71.334 20.9892 71.4989 21.1613 71.6131 21.3716C71.7272 21.5818 71.7843 21.8399 71.7843 22.1458C71.7843 22.5217 71.686 22.8499 71.4894 23.1302C71.2992 23.4042 71.0011 23.6177 70.5953 23.7706C70.1958 23.9235 69.6758 24 69.0353 24C68.5787 24 68.176 23.9522 67.8272 23.8566C67.4784 23.7547 67.1772 23.6209 66.9236 23.4552C66.6699 23.2895 66.4638 23.1079 66.3053 22.9104C66.1467 22.7129 66.0326 22.5153 65.9628 22.3178C65.8994 22.1203 65.874 21.9419 65.8867 21.7826Z" fill="black"/>
<path d="M72.3582 17.6822H78.8455V18.7431H72.3582V17.6822ZM74.9741 18.6093H76.2392V23.8662H74.9741V18.6093Z" fill="black"/>
</svg>
